<?xml version="1.0" encoding="UTF-8"?>
<!DOCTYPE svg PUBLIC "-//W3C//DTD SVG 1.1//EN" "http://www.w3.org/Graphics/SVG/1.1/DTD/svg11.dtd">
<!-- Creator: CorelDRAW 2020 (64-Bit) -->
<svg xmlns="http://www.w3.org/2000/svg" xml:space="preserve" width="9.2202mm" height="9.2202mm" version="1.1" style="shape-rendering:geometricPrecision; text-rendering:geometricPrecision; image-rendering:optimizeQuality; fill-rule:evenodd; clip-rule:evenodd"
viewBox="0 0 45.88 45.88"
 xmlns:xlink="http://www.w3.org/1999/xlink"
 xmlns:xodm="http://www.corel.com/coreldraw/odm/2003">
 <defs>
  <style type="text/css">
   <![CDATA[
    .fil0 {fill:#131D26}
   ]]>
  </style>
 </defs>
 <g id="Capa_x0020_1">
  <metadata id="CorelCorpID_0Corel-Layer"/>
  <path class="fil0" d="M22.28 45.88l1.36 0c0.22,-0.08 4.37,0.09 9.16,-2.22 2.47,-1.19 4.77,-2.82 6.62,-4.76 0.88,-0.92 1.78,-1.99 2.55,-3.15 0.35,-0.53 0.77,-1.19 1.08,-1.77 0.69,-1.29 1.27,-2.58 1.72,-3.98 1.77,-5.6 1.42,-11.46 -1.01,-16.7 -0.59,-1.27 -1.27,-2.44 -2.09,-3.6 -0.86,-1.21 -1.59,-2.05 -2.62,-3.08 -2.93,-2.94 -6.77,-5.05 -11.03,-6.05 -6.16,-1.44 -12.97,-0.11 -18.1,3.5 -1.5,1.06 -2.6,2.01 -3.81,3.31 -2.61,2.79 -4.59,6.45 -5.46,10.2 -0.37,1.59 -0.62,3.39 -0.64,5.05 -0.02,1.77 0.19,3.52 0.53,5.17 0.44,2.16 1.3,4.33 2.33,6.21 0.91,1.65 2.04,3.2 3.3,4.55 0.12,0.13 0.22,0.25 0.34,0.36 0.24,0.23 0.47,0.47 0.72,0.71 0.73,0.69 1.54,1.35 2.33,1.93 3.24,2.37 7.33,3.9 11.41,4.24 0.2,0.02 1.24,0.06 1.32,0.09zm-15.84 -12.54c0.27,0.03 7.87,0 8.11,0 1.34,0 2.63,0.05 3.89,-0.18 3.33,-0.6 5.83,-2.79 5.36,-6.72 -0.23,-1.94 -1.25,-3.39 -2.99,-4.12 -0.12,-0.05 -0.7,-0.24 -0.75,-0.28 0.12,-0.1 0.64,-0.32 1.1,-0.69 0.36,-0.29 0.61,-0.53 0.89,-0.9 0.55,-0.74 0.8,-1.69 0.8,-2.78 0,-2.32 -0.99,-3.73 -2.71,-4.48 -1.82,-0.79 -4.31,-0.64 -6.52,-0.64 -0.18,0 -6.99,-0.02 -7.18,0l-0 20.78zm4.57 -9.06l-0 5.5c1.58,0.03 3.28,0 4.89,0 1.18,0 2.42,-0.26 3.04,-1.29 0.56,-0.93 0.41,-2.68 -0.24,-3.43 -0.86,-0.98 -2.13,-0.99 -3.34,-0.99 -0.33,0 -4.12,-0.02 -4.34,0.01l0 0.19zm0 -3.32c0.21,0.02 4.57,0.02 4.9,-0 1.5,-0.1 2.5,-0.79 2.52,-2.42 0.03,-2.81 -2.95,-2.43 -4.95,-2.43 -0.4,0 -2.24,-0.02 -2.46,0.01l-0 4.85zm28.15 7.34l-3.63 -0c-0.27,0.73 -0.87,1.27 -1.57,1.6 -1.4,0.65 -3.75,0.46 -4.69,-0.94 -0.4,-0.59 -0.71,-1.64 -0.68,-2.52 3.58,0.03 7.16,-0.02 10.72,0 0.13,0 0.13,0.01 0.14,-0.12 0.02,-0.71 0.02,-1.42 -0.08,-2.1 -0.19,-1.3 -0.49,-2.2 -1.1,-3.31 -0.49,-0.9 -1.27,-1.7 -2.11,-2.27 -0.93,-0.62 -1.99,-1.01 -3.29,-1.11 -5.4,-0.41 -8.96,3.84 -8.34,9.06 0.15,1.24 0.52,2.42 1.07,3.32 0.6,0.96 1.17,1.61 2.16,2.25 2.61,1.72 7.55,1.71 9.89,-0.98 0.55,-0.63 0.91,-1.28 1.24,-2.05 0.09,-0.21 0.26,-0.61 0.3,-0.83zm-10.58 -4.49l6.7 -0c-0,-0.3 -0.24,-1.01 -0.35,-1.29 -0.16,-0.39 -0.35,-0.72 -0.6,-1.02 -0.51,-0.61 -1.33,-0.91 -2.39,-0.89 -0.51,0.01 -0.97,0.08 -1.39,0.24 -0.36,0.15 -0.77,0.42 -1,0.65 -0.27,0.28 -0.49,0.56 -0.67,0.96 -0.13,0.29 -0.33,1 -0.31,1.35zm7.69 -10.17c-0.02,-0.04 0.01,-0.04 -0.11,-0.05l-1.98 0c-0.68,0 -6.15,-0.03 -6.32,0.01l-0 2.32c0.15,0.05 6.85,0.01 7.9,0.01 0.08,0 0.17,0 0.25,0 0.12,0 0.21,0.02 0.26,-0.04l-0 -2.27z"/>
 </g>
</svg>
