<?xml version="1.0" encoding="UTF-8"?>
<!DOCTYPE svg PUBLIC "-//W3C//DTD SVG 1.1//EN" "http://www.w3.org/Graphics/SVG/1.1/DTD/svg11.dtd">
<!-- Creator: CorelDRAW 2020 (64-Bit) -->
<svg xmlns="http://www.w3.org/2000/svg" xml:space="preserve" width="7.9374mm" height="7.9374mm" version="1.1" style="shape-rendering:geometricPrecision; text-rendering:geometricPrecision; image-rendering:optimizeQuality; fill-rule:evenodd; clip-rule:evenodd"
viewBox="0 0 15.03 15.03"
 xmlns:xlink="http://www.w3.org/1999/xlink"
 xmlns:xodm="http://www.corel.com/coreldraw/odm/2003">
 <defs>
  <style type="text/css">
   <![CDATA[
    .fil0 {fill:#131D26}
   ]]>
  </style>
 </defs>
 <g id="Capa_x0020_1">
  <metadata id="CorelCorpID_0Corel-Layer"/>
  <path class="fil0" d="M7.52 0c4.15,0 7.52,3.36 7.52,7.52 0,4.15 -3.36,7.52 -7.52,7.52 -4.15,0 -7.52,-3.36 -7.52,-7.52 0,-4.15 3.36,-7.52 7.52,-7.52zm0 1.84c0.53,0 1.04,0.07 1.53,0.21 -1.74,0.36 -3.04,1.9 -3.04,3.75 0,2.12 1.71,3.83 3.83,3.83 1.45,0 2.71,-0.8 3.36,-1.99 -0.06,3.08 -2.58,5.56 -5.68,5.56 -3.14,0 -5.68,-2.54 -5.68,-5.68 0,-3.14 2.54,-5.68 5.68,-5.68z"/>
 </g>
</svg>
