<?xml version="1.0" encoding="UTF-8"?>
<!DOCTYPE svg PUBLIC "-//W3C//DTD SVG 1.1//EN" "http://www.w3.org/Graphics/SVG/1.1/DTD/svg11.dtd">
<!-- Creator: CorelDRAW 2020 (64-Bit) -->
<svg xmlns="http://www.w3.org/2000/svg" xml:space="preserve" width="4.5484mm" height="4.3392mm" version="1.1" style="shape-rendering:geometricPrecision; text-rendering:geometricPrecision; image-rendering:optimizeQuality; fill-rule:evenodd; clip-rule:evenodd"
viewBox="0 0 6.71 6.4"
 xmlns:xlink="http://www.w3.org/1999/xlink"
 xmlns:xodm="http://www.corel.com/coreldraw/odm/2003">
 <defs>
  <style type="text/css">
   <![CDATA[
    .fil0 {fill:#90C26B;fill-rule:nonzero}
   ]]>
  </style>
 </defs>
 <g id="Capa_x0020_1">
  <metadata id="CorelCorpID_0Corel-Layer"/>
  <g id="_1515057933584">
   <path class="fil0" d="M0.29 3.78c0.03,-0.02 0.06,-0.03 0.09,-0.03 0.03,0 0.07,0.02 0.09,0.05 0.02,0.03 0.03,0.06 0.03,0.09 -0,0.03 -0.02,0.07 -0.05,0.09 -0.03,0.02 -0.06,0.03 -0.09,0.03 -0.03,-0 -0.07,-0.02 -0.09,-0.05 -0.02,-0.03 -0.03,-0.06 -0.03,-0.09 0,-0.03 0.02,-0.07 0.05,-0.09zm5.75 -1.32l0.2 -0.17 0.17 0.2 -0.2 0.17 -0.17 -0.2zm0.14 -0.43l-0.12 0.1c-0.44,-0.41 -0.99,-0.65 -1.56,-0.71 -0.35,-0.04 -0.71,-0.02 -1.05,0.08l0.97 -0.8c0.05,0.03 0.1,0.05 0.16,0.05l0 0c0.1,0.01 0.2,-0.02 0.28,-0.08 0.08,-0.07 0.13,-0.16 0.13,-0.25l0 -0c0.01,-0.1 -0.02,-0.2 -0.08,-0.28 -0.07,-0.08 -0.16,-0.13 -0.25,-0.13 -0.1,-0.01 -0.2,0.02 -0.28,0.08 -0.08,0.07 -0.13,0.16 -0.13,0.25l-0 0c-0.01,0.06 0,0.11 0.02,0.17l-1.47 1.21 -0.13 -0.16c-0.04,-0.05 -0.12,-0.06 -0.17,-0.02l-0.57 0.47c-0.05,0.04 -0.06,0.12 -0.02,0.17l0.13 0.16 -1.47 1.21c-0.05,-0.03 -0.1,-0.05 -0.16,-0.05 -0.1,-0.01 -0.2,0.02 -0.28,0.08 -0.08,0.07 -0.13,0.16 -0.13,0.25l0 0c-0.01,0.1 0.02,0.2 0.08,0.28 0.07,0.08 0.16,0.13 0.25,0.13l0 0c0.1,0.01 0.2,-0.02 0.28,-0.08 0.08,-0.07 0.13,-0.16 0.13,-0.25l0 -0c0.01,-0.06 -0,-0.11 -0.02,-0.17l0.97 -0.8c-0.16,0.32 -0.25,0.67 -0.27,1.02 -0.04,0.57 0.09,1.15 0.41,1.66l-0.12 0.1c-0.05,0.04 -0.06,0.12 -0.02,0.17l0.32 0.39c0.04,0.05 0.12,0.06 0.17,0.02l0.39 -0.32c0.05,-0.04 0.06,-0.12 0.02,-0.17l-0.32 -0.39c-0.04,-0.05 -0.12,-0.06 -0.17,-0.02l-0.08 0.07c-0.28,-0.46 -0.39,-0.98 -0.35,-1.49 0.04,-0.51 0.23,-1 0.56,-1.41l0.15 0.18c0.04,0.05 0.12,0.06 0.17,0.02l0.57 -0.47c0.05,-0.04 0.06,-0.12 0.02,-0.17l-0.15 -0.18c0.47,-0.25 0.99,-0.35 1.49,-0.29 0.51,0.06 1,0.27 1.39,0.63l-0.08 0.07c-0.05,0.04 -0.06,0.12 -0.02,0.17l0.32 0.39c0.04,0.05 0.12,0.06 0.17,0.02l0.39 -0.32c0.05,-0.04 0.06,-0.12 0.02,-0.17l-0.32 -0.39c-0.04,-0.05 -0.12,-0.06 -0.17,-0.02zm-4.22 3.81l0.2 -0.17 0.17 0.2 -0.2 0.17 -0.17 -0.2zm0.22 -3.72l0.38 -0.31 0.31 0.38 -0.38 0.31 -0.31 -0.38zm2.36 -1.85c0.03,-0.02 0.06,-0.03 0.09,-0.03 0.03,0 0.07,0.02 0.09,0.05 0.02,0.03 0.03,0.06 0.03,0.09 -0,0.03 -0.02,0.07 -0.05,0.09 -0.03,0.02 -0.06,0.03 -0.09,0.03 -0.03,-0 -0.07,-0.02 -0.09,-0.05 -0.02,-0.03 -0.03,-0.06 -0.03,-0.09 0,-0.03 0.02,-0.07 0.05,-0.09z"/>
   <path class="fil0" d="M3.72 6.05l-0.9 -3.35c-0.02,-0.07 0.02,-0.13 0.09,-0.15 0.03,-0.01 0.06,-0 0.09,0.01l3.12 1.51c0.06,0.03 0.09,0.1 0.06,0.16 -0.01,0.02 -0.02,0.03 -0.03,0.04l-0.76 0.63 0.71 0.86c0.04,0.05 0.04,0.13 -0.02,0.17l-0.53 0.43c-0.05,0.04 -0.13,0.04 -0.17,-0.02l-0.71 -0.86 -0.76 0.63c-0.05,0.04 -0.13,0.04 -0.17,-0.02 -0.01,-0.01 -0.02,-0.03 -0.02,-0.05zm-0.59 -3.16l0.78 2.91 0.71 -0.58c0.05,-0.04 0.13,-0.04 0.17,0.02l0.71 0.86 0.34 -0.28 -0.71 -0.86c-0.04,-0.05 -0.04,-0.13 0.02,-0.17l0.71 -0.58 -2.72 -1.31z"/>
  </g>
 </g>
</svg>
