<?xml version="1.0" encoding="UTF-8"?>
<!DOCTYPE svg PUBLIC "-//W3C//DTD SVG 1.1//EN" "http://www.w3.org/Graphics/SVG/1.1/DTD/svg11.dtd">
<!-- Creator: CorelDRAW 2020 (64-Bit) -->
<svg xmlns="http://www.w3.org/2000/svg" xml:space="preserve" width="9.2203mm" height="9.2202mm" version="1.1" style="shape-rendering:geometricPrecision; text-rendering:geometricPrecision; image-rendering:optimizeQuality; fill-rule:evenodd; clip-rule:evenodd"
viewBox="0 0 33.9 33.9"
 xmlns:xlink="http://www.w3.org/1999/xlink"
 xmlns:xodm="http://www.corel.com/coreldraw/odm/2003">
 <defs>
  <style type="text/css">
   <![CDATA[
    .fil0 {fill:#131D26}
   ]]>
  </style>
 </defs>
 <g id="Capa_x0020_1">
  <metadata id="CorelCorpID_0Corel-Layer"/>
  <path class="fil0" d="M16.47 33.9l1 0c0.16,-0.06 3.23,0.06 6.77,-1.64 1.83,-0.88 3.52,-2.08 4.89,-3.52 0.65,-0.68 1.31,-1.47 1.88,-2.32 0.26,-0.39 0.57,-0.88 0.8,-1.31 0.51,-0.95 0.94,-1.91 1.27,-2.94 1.31,-4.14 1.05,-8.47 -0.75,-12.34 -0.44,-0.94 -0.94,-1.81 -1.54,-2.66 -0.63,-0.9 -1.18,-1.51 -1.93,-2.27 -2.16,-2.18 -5.01,-3.73 -8.15,-4.47 -4.55,-1.06 -9.59,-0.08 -13.37,2.59 -1.11,0.78 -1.92,1.49 -2.82,2.45 -1.93,2.06 -3.39,4.77 -4.03,7.54 -0.27,1.18 -0.46,2.51 -0.48,3.73 -0.02,1.31 0.14,2.6 0.39,3.82 0.33,1.6 0.96,3.2 1.72,4.59 0.67,1.22 1.51,2.36 2.44,3.36 0.09,0.1 0.16,0.18 0.25,0.27 0.18,0.17 0.35,0.35 0.53,0.53 0.54,0.51 1.14,1 1.72,1.42 2.39,1.75 5.42,2.88 8.43,3.13 0.15,0.01 0.92,0.04 0.98,0.06zm-7.36 -23.95c-1.35,0.31 -1.49,1.27 -1.49,2.77l-0.01 8.65c0,1.58 -0.23,2.73 0.82,3.48 0.79,0.55 2.81,0.34 3.92,0.34 0.86,0 4.4,0.03 7.56,0.03 0,-0.68 0.01,-1.34 0.01,-1.94l-10.4 0 0 -9.54 3.85 2.37c0.52,0.33 3.54,2.27 3.84,2.36l7.61 -4.73 -0 3.54 1.92 0 0 -3.59c0,-1.51 0.23,-2.75 -0.84,-3.47 -0.79,-0.54 -2.79,-0.33 -3.92,-0.33 -1.67,0 -12.14,-0.1 -12.87,0.07zm15.61 1.87l-15.09 -0.02c0.01,0.02 0.04,0.02 0.05,0.05l7.52 4.69c0.05,-0 7.33,-4.49 7.53,-4.72zm4.06 9.47l-1.86 0c-0.17,1.47 0.38,3.99 -0.45,5.01 -1.07,1.32 -3.05,0.68 -3.35,-0.77 -0.12,-0.59 -0.05,-1.95 -0.05,-2.63 0,-0.58 -0.16,-2.33 0.26,-2.51 1.3,-0.56 0.42,2.99 0.73,4.72l1.87 -0c0.08,-0.93 0.1,-3.67 -0,-4.55 -0.32,-2.9 -4.71,-2.87 -4.77,0.34 -0.02,1.29 -0.11,3.44 0.03,4.65 0.49,4.35 6.73,4.54 7.55,0.34 0.12,-0.59 0.14,-3.97 0.05,-4.59z"/>
 </g>
</svg>
