<?xml version="1.0" encoding="UTF-8"?>
<!DOCTYPE svg PUBLIC "-//W3C//DTD SVG 1.1//EN" "http://www.w3.org/Graphics/SVG/1.1/DTD/svg11.dtd">
<!-- Creator: CorelDRAW 2020 (64-Bit) -->
<svg xmlns="http://www.w3.org/2000/svg" xml:space="preserve" width="9.2203mm" height="9.0042mm" version="1.1" style="shape-rendering:geometricPrecision; text-rendering:geometricPrecision; image-rendering:optimizeQuality; fill-rule:evenodd; clip-rule:evenodd"
viewBox="0 0 27.17 26.54"
 xmlns:xlink="http://www.w3.org/1999/xlink"
 xmlns:xodm="http://www.corel.com/coreldraw/odm/2003">
 <defs>
  <style type="text/css">
   <![CDATA[
    .fil0 {fill:#131D26}
   ]]>
  </style>
 </defs>
 <g id="Capa_x0020_1">
  <metadata id="CorelCorpID_0Corel-Layer"/>
  <path class="fil0" d="M-0 13.11c0,2.28 0.2,3.49 0.95,5.58 0.06,0.18 0.12,0.27 0.2,0.43 0.09,0.18 0.13,0.3 0.21,0.48 0.44,0.92 1.21,2.12 1.92,2.86 0.14,0.15 0.18,0.23 0.32,0.37 0.24,0.25 0.45,0.45 0.69,0.69 0.46,0.46 0.97,0.88 1.52,1.24 0.56,0.37 1.09,0.71 1.69,1.01 0.41,0.21 1.65,0.76 2.11,0.76 0.38,0 0.64,-0.35 0.64,-0.74l0 -2.49c-0.32,0.01 -0.52,0.11 -0.9,0.11 -1.64,0 -3.01,-0.09 -3.7,-1.71 -0.33,-0.78 -0.78,-1.54 -1.51,-1.99 -0.21,-0.13 -0.5,-0.36 -0.52,-0.65 0.68,-0.45 1.74,0.18 2.22,0.65 0.64,0.63 1.14,2.15 2.65,2.08 0.65,-0.03 1.13,-0.01 1.65,-0.3 0.31,-0.17 0.15,-0.72 0.6,-1.41 0.12,-0.18 0.3,-0.27 0.36,-0.49 -0.4,-0.03 -0.94,-0.14 -1.32,-0.22 -1.41,-0.29 -2.63,-0.9 -3.54,-1.98 -0.38,-0.45 -0.63,-0.98 -0.83,-1.56 -0.7,-1.99 -0.69,-4.34 0.53,-6.09 0.45,-0.65 0.41,-0.28 0.22,-1.08 -0.2,-0.86 0,-3.04 0.44,-3.04 0.78,0 1.33,0.26 1.97,0.52 0.93,0.38 1.46,0.95 1.81,0.87 0.81,-0.17 1.52,-0.4 2.38,-0.39 0.4,0 0.63,-0.08 1.06,-0.05 0.95,0.05 1.97,0.16 2.89,0.41 0.21,0.06 0.23,0.1 0.39,0.01 0.66,-0.34 0.71,-0.52 1.79,-0.97 0.68,-0.29 0.87,-0.4 1.83,-0.4 0.2,0.85 0.42,0.7 0.42,2.28 0,0.28 -0.03,0.47 -0.08,0.71 -0.04,0.18 -0.18,0.51 -0.16,0.61 0.03,0.2 2.35,2.26 0.92,6.57 -0.52,1.57 -1.66,2.6 -3.16,3.2 -0.73,0.29 -1.78,0.57 -2.6,0.58 0.35,0.52 0.6,0.55 0.78,1.34 0.29,1.27 -0.05,4.32 0.17,5.13 0.09,0.32 0.34,0.48 0.69,0.48 0.34,0 1.66,-0.59 1.96,-0.74 0.44,-0.22 0.92,-0.46 1.32,-0.75l1.17 -0.85c0.51,-0.41 0.97,-0.87 1.43,-1.33 0.14,-0.14 0.18,-0.23 0.32,-0.37 0.75,-0.79 1.45,-1.88 1.93,-2.85 0.8,-1.63 1.38,-3.59 1.38,-5.47 0,-1.81 -0.13,-3.58 -0.79,-5.21 -0.32,-0.79 -0.64,-1.49 -1.05,-2.24l-0.65 -0.99c-0.47,-0.66 -0.95,-1.24 -1.53,-1.82 -1.24,-1.24 -2.82,-2.28 -4.45,-2.93 -0.22,-0.09 -0.43,-0.16 -0.61,-0.23 -2.32,-0.87 -5.27,-0.97 -7.69,-0.38 -1.28,0.31 -2.39,0.79 -3.54,1.4 -1.03,0.55 -2.02,1.32 -2.84,2.15 -0.81,0.81 -1.58,1.77 -2.16,2.78 -0.2,0.35 -0.37,0.69 -0.57,1.08 -0.65,1.28 -1.29,3.44 -1.29,5.34z"/>
 </g>
</svg>
