<?xml version="1.0" encoding="UTF-8"?>
<!DOCTYPE svg PUBLIC "-//W3C//DTD SVG 1.1//EN" "http://www.w3.org/Graphics/SVG/1.1/DTD/svg11.dtd">
<!-- Creator: CorelDRAW 2020 (64-Bit) -->
<svg xmlns="http://www.w3.org/2000/svg" xml:space="preserve" width="9.2203mm" height="9.2202mm" version="1.1" style="shape-rendering:geometricPrecision; text-rendering:geometricPrecision; image-rendering:optimizeQuality; fill-rule:evenodd; clip-rule:evenodd"
viewBox="0 0 38.99 38.99"
 xmlns:xlink="http://www.w3.org/1999/xlink"
 xmlns:xodm="http://www.corel.com/coreldraw/odm/2003">
 <defs>
  <style type="text/css">
   <![CDATA[
    .fil0 {fill:#131D26}
   ]]>
  </style>
 </defs>
 <g id="Capa_x0020_1">
  <metadata id="CorelCorpID_0Corel-Layer"/>
  <path class="fil0" d="M18.94 38.99l1.15 0c0.19,-0.07 3.72,0.07 7.79,-1.89 2.1,-1.01 4.05,-2.39 5.63,-4.05 0.75,-0.79 1.51,-1.69 2.17,-2.67 0.3,-0.45 0.66,-1.01 0.92,-1.5 0.59,-1.09 1.08,-2.19 1.46,-3.38 1.5,-4.76 1.2,-9.74 -0.86,-14.19 -0.5,-1.08 -1.08,-2.08 -1.78,-3.06 -0.73,-1.03 -1.35,-1.74 -2.22,-2.62 -2.49,-2.5 -5.76,-4.3 -9.38,-5.14 -5.24,-1.22 -11.03,-0.09 -15.38,2.98 -1.28,0.9 -2.21,1.71 -3.24,2.82 -2.22,2.37 -3.9,5.49 -4.64,8.67 -0.31,1.35 -0.53,2.88 -0.55,4.29 -0.02,1.51 0.16,3 0.45,4.39 0.37,1.84 1.1,3.68 1.98,5.28 0.77,1.41 1.73,2.72 2.8,3.87 0.1,0.11 0.19,0.21 0.29,0.31 0.2,0.19 0.4,0.4 0.61,0.6 0.62,0.59 1.31,1.14 1.98,1.64 2.75,2.02 6.23,3.31 9.7,3.6 0.17,0.01 1.06,0.05 1.13,0.07zm-9.2 -9.73l4.45 -0.01 0 -14.26 -4.43 -0.01 -0.03 14.28zm10.95 -12.35l0.01 -1.94 -4.27 0.01 0.01 14.27 4.44 0.01c0.06,-2.17 0,-4.4 0,-6.56 -0,-2.17 0.19,-4.03 2.47,-4.16 2.45,-0.15 2.5,2.03 2.5,4.11 0,2.14 -0.1,4.52 0.01,6.63l4.44 -0.01c0.11,-2.1 0.01,-4.49 0.01,-6.62 0,-3.95 -0.06,-7.97 -5.27,-8.01 -0.98,-0.01 -1.92,0.22 -2.64,0.65 -0.61,0.36 -1.14,0.83 -1.49,1.42 -0.12,0.19 -0.06,0.18 -0.21,0.22zm-8.97 -9.03c-1.27,0.13 -2.55,1.34 -2.33,2.82 0.2,1.37 1.27,2.44 2.83,2.31 1.33,-0.11 2.45,-1.36 2.31,-2.84 -0.13,-1.3 -1.32,-2.44 -2.8,-2.29z"/>
 </g>
</svg>
