<?xml version="1.0" encoding="UTF-8"?>
<!DOCTYPE svg PUBLIC "-//W3C//DTD SVG 1.1//EN" "http://www.w3.org/Graphics/SVG/1.1/DTD/svg11.dtd">
<!-- Creator: CorelDRAW 2020 (64-Bit) -->
<svg xmlns="http://www.w3.org/2000/svg" xml:space="preserve" width="4.1952mm" height="3.4928mm" version="1.1" style="shape-rendering:geometricPrecision; text-rendering:geometricPrecision; image-rendering:optimizeQuality; fill-rule:evenodd; clip-rule:evenodd"
viewBox="0 0 5.67 4.72"
 xmlns:xlink="http://www.w3.org/1999/xlink"
 xmlns:xodm="http://www.corel.com/coreldraw/odm/2003">
 <defs>
  <style type="text/css">
   <![CDATA[
    .fil0 {fill:#FF6B6B;fill-rule:nonzero}
   ]]>
  </style>
 </defs>
 <g id="Capa_x0020_1">
  <metadata id="CorelCorpID_0Corel-Layer"/>
  <path class="fil0" d="M2.75 4.68l-2.72 -3.09c-0.02,-0.02 -0.03,-0.05 -0.03,-0.08 0,-0.03 0.01,-0.05 0.02,-0.07l0.8 -1.39c0.01,-0.02 0.03,-0.04 0.06,-0.05 0.01,-0.01 0.03,-0.01 0.05,-0.01l0 -0 3.82 0c0.05,0 0.09,0.03 0.11,0.07l0.8 1.38c0.01,0.02 0.02,0.04 0.02,0.07 0,0.03 -0.01,0.06 -0.03,0.08l-2.72 3.09c-0.04,0.05 -0.12,0.05 -0.16,0.01 -0,-0 -0.01,-0.01 -0.01,-0.01zm-1.19 -3.38l1.01 -1.08 -1.47 0 0.46 1.08zm1.55 -1.08l1.01 1.08 0.46 -1.08 -1.47 0zm0.78 1.17l-1.05 -1.12 -1.05 1.12 0.53 0c0.06,0 0.12,0.05 0.12,0.12 0,0.06 -0.05,0.12 -0.12,0.12l-0.63 0 1.14 2.68 1.14 -2.68 -0.63 0c-0.06,0 -0.12,-0.05 -0.12,-0.12 0,-0.06 0.05,-0.12 0.12,-0.12l0.53 0zm0.88 -1.03l-0.44 1.03 1.03 0 -0.59 -1.03zm-0.54 1.26l-1 2.36 2.08 -2.36 -1.07 0zm-1.78 2.36l-1 -2.36 -1.07 0 2.08 2.36zm-1.1 -2.59l-0.44 -1.03 -0.59 1.03 1.03 0zm1.49 -0.02c0.08,0 0.14,0.06 0.14,0.14 0,0.08 -0.06,0.14 -0.14,0.14 -0.08,0 -0.14,-0.06 -0.14,-0.14 0,-0.08 0.06,-0.14 0.14,-0.14z"/>
 </g>
</svg>
